<svg width="1080" height="1080" viewBox="0 0 1080 1080" fill="none" xmlns="http://www.w3.org/2000/svg">
<g clip-path="url(#clip0_490_2)">
<rect width="1080" height="1080" rx="250" fill="#292C35"/>
<path d="M120.015 168.003C120.559 182.671 126.705 196.573 137.186 206.847L334.781 404.433L137.222 599.445C137.218 599.449 137.213 599.453 137.209 599.458C131.631 604.925 127.229 611.474 124.272 618.703C121.324 625.908 119.874 633.638 120.009 641.42C120.034 657.998 126.63 673.89 138.354 685.614C150.1 697.36 166.032 703.958 182.643 703.958H182.703L182.763 703.958C190.476 703.866 198.095 702.247 205.18 699.195C212.239 696.155 218.628 691.751 223.982 686.237L419.454 490.774L612.922 686.773L612.938 686.788L612.953 686.804C618.669 692.544 625.517 697.031 633.06 699.983C640.539 702.909 648.539 704.262 656.563 703.958C673.1 703.904 688.948 697.311 700.646 685.614C712.392 673.868 718.991 657.937 718.991 641.326V641.141L718.985 640.955C718.441 626.288 712.296 612.387 701.816 602.113C701.801 602.1 701.787 602.086 701.773 602.072L504.219 404.525L701.778 209.513C701.782 209.509 701.786 209.505 701.79 209.502C707.368 204.034 711.771 197.485 714.729 190.255C717.676 183.049 719.127 175.319 718.991 167.536C718.966 150.959 712.369 135.067 700.646 123.345C688.9 111.599 672.968 105 656.357 105H656.3L656.242 105.001C648.376 105.09 640.609 106.768 633.407 109.932C626.255 113.075 619.806 117.62 614.441 123.298L419.5 318.231L223.401 122.14C212.61 111.35 198.013 105.191 182.768 105.001L182.706 105H182.643C166.032 105 150.1 111.599 138.354 123.345C126.608 135.09 120.009 151.021 120.009 167.633V167.818L120.015 168.003Z" fill="#EC7F69" stroke="#EC7F69" stroke-width="20"/>
<path fill-rule="evenodd" clip-rule="evenodd" d="M734.025 403C561.083 403 453 533.083 453 693.5C453 853.971 561.083 984 734.025 984C906.917 984 1015 853.917 1015 693.5C1014.95 533.029 906.917 403 734.025 403ZM734.025 844.417C644.184 844.417 587.989 776.839 587.989 693.5C587.989 610.161 644.134 542.582 734.025 542.582C823.866 542.582 880.011 610.161 880.011 693.5C879.96 776.839 823.816 844.417 734.025 844.417Z" fill="#866EFF"/>
</g>
<defs>
<clipPath id="clip0_490_2">
<rect width="1080" height="1080" fill="white"/>
</clipPath>
</defs>
</svg>
