<svg width="153" height="151" viewBox="0 0 153 151" fill="none" xmlns="http://www.w3.org/2000/svg">
<path d="M51.3949 37.6742L17.4368 3.71755C15.7258 2.00668 13.4111 1.03028 10.9946 1.00008L10.9946 1H10.9821C8.33508 1 5.79647 2.05148 3.92473 3.92313C2.053 5.79479 1.00146 8.33331 1.00146 10.9802V10.9988L1.00215 11.0173C1.08826 13.3406 2.06208 15.5423 3.7229 17.1691L37.942 51.3868L3.72643 85.1612C3.726 85.1616 3.72557 85.162 3.72514 85.1624C2.84179 86.0282 2.14456 87.0652 1.67623 88.21C1.20887 89.3523 0.979294 90.578 1.00147 91.812C1.00397 94.4555 2.05523 96.9902 3.92473 98.8596C5.79647 100.731 8.33508 101.783 10.9821 101.783L10.994 101.783C12.2169 101.768 13.4247 101.511 14.5479 101.028C15.6685 100.545 16.6826 99.8456 17.5321 98.9698L51.3903 65.1131L84.8994 99.0606L84.9026 99.0637C85.8088 99.9736 86.8943 100.685 88.0901 101.153C89.2795 101.618 90.5523 101.833 91.8284 101.783C94.4679 101.777 96.9982 100.726 98.8651 98.8596C100.737 96.9879 101.788 94.4494 101.788 91.8025V91.784L101.788 91.7654C101.702 89.4421 100.728 87.2403 99.0669 85.6136C99.0656 85.6123 99.0642 85.611 99.0629 85.6097L64.8478 51.396L99.0634 17.6215C99.064 17.621 99.0646 17.6204 99.0652 17.6198C99.9483 16.7542 100.645 15.7173 101.114 14.5728L100.188 14.1941L101.114 14.5728C101.581 13.4304 101.811 12.2049 101.788 10.9709C101.786 8.32733 100.735 5.79259 98.8651 3.92313C96.9934 2.05148 94.4548 1 91.8077 0.999935L91.7963 1.00007C90.5493 1.0143 89.3179 1.28023 88.1762 1.7819C87.0393 2.28143 86.0145 3.00444 85.1627 3.90791L51.3949 37.6742Z" fill="#FF3C15" stroke="#FF3C15" stroke-width="2"/>
<path fill-rule="evenodd" clip-rule="evenodd" d="M105.06 51.1517C75.552 51.1517 57.1107 73.3409 57.1107 100.705C57.1107 128.077 75.552 150.257 105.06 150.257C134.559 150.257 153 128.068 153 100.705C152.991 73.3317 134.559 51.1517 105.06 51.1517ZM105.06 126.448C89.7309 126.448 80.1428 114.92 80.1428 100.705C80.1428 86.4887 89.7222 74.9614 105.06 74.9614C120.388 74.9614 129.968 86.4887 129.968 100.705C129.959 114.92 120.38 126.448 105.06 126.448Z" fill="#694CFF"/>
</svg>
