<svg width="3218" height="758" viewBox="0 0 3218 758" fill="none" xmlns="http://www.w3.org/2000/svg">
<path d="M499.6 358C445.933 358 404.1 343.5 374.1 314.5C344.1 285.5 329.1 244.833 329.1 192.5V-2.38419e-05H447.1V189C447.1 215.667 451.933 234.667 461.6 246C471.266 257 484.266 262.5 500.6 262.5C517.266 262.5 530.266 257 539.6 246C549.266 234.667 554.1 215.667 554.1 189V-2.38419e-05H670.1V192.5C670.1 244.833 655.1 285.5 625.1 314.5C595.1 343.5 553.266 358 499.6 358ZM714.189 350V-2.38419e-05H832.189V258.5H990.189V350H714.189ZM1056.07 350V91.5H953.568V-2.38419e-05H1276.57V91.5H1174.07V350H1056.07ZM1297.22 350V-2.38419e-05H1415.22V350H1297.22ZM1462.02 350V-2.38419e-05H1559.02L1699.02 228.5H1648.02L1784.02 -2.38419e-05H1881.02L1882.02 350H1774.52L1773.52 162H1790.52L1697.52 318.5H1645.52L1548.52 162H1569.52V350H1462.02ZM1891.07 350L2044.07 -2.38419e-05H2160.07L2313.07 350H2191.07L2078.07 56H2124.07L2011.07 350H1891.07ZM1982.07 289L2012.07 204H2173.07L2203.07 289H1982.07ZM2380.33 350V91.5H2277.83V-2.38419e-05H2600.83V91.5H2498.33V350H2380.33ZM2729.47 130H2885.47V215H2729.47V130ZM2737.47 261H2912.47V350H2621.47V-2.38419e-05H2905.97V89H2737.47V261ZM103.031 750V491.5H0.53125V400H323.531V491.5H221.031V750H103.031ZM344.18 750V400H462.18V750H344.18ZM689.984 758C661.984 758 635.984 753.667 611.984 745C588.318 736 567.651 723.333 549.984 707C532.651 690.667 519.151 671.333 509.484 649C499.818 626.667 494.984 602 494.984 575C494.984 548 499.818 523.333 509.484 501C519.151 478.667 532.651 459.333 549.984 443C567.651 426.667 588.318 414.167 611.984 405.5C635.984 396.5 661.984 392 689.984 392C724.318 392 754.651 398 780.984 410C807.651 422 829.651 439.333 846.984 462L772.484 528.5C762.151 515.5 750.651 505.5 737.984 498.5C725.651 491.167 711.651 487.5 695.984 487.5C683.651 487.5 672.484 489.5 662.484 493.5C652.484 497.5 643.818 503.333 636.484 511C629.484 518.667 623.984 528 619.984 539C615.984 549.667 613.984 561.667 613.984 575C613.984 588.333 615.984 600.5 619.984 611.5C623.984 622.167 629.484 631.333 636.484 639C643.818 646.667 652.484 652.5 662.484 656.5C672.484 660.5 683.651 662.5 695.984 662.5C711.651 662.5 725.651 659 737.984 652C750.651 644.667 762.151 634.5 772.484 621.5L846.984 688C829.651 710.333 807.651 727.667 780.984 740C754.651 752 724.318 758 689.984 758ZM1086.96 750V491.5H984.457V400H1307.46V491.5H1204.96V750H1086.96ZM1272.53 750L1425.53 400H1541.53L1694.53 750H1572.53L1459.53 456H1505.53L1392.53 750H1272.53ZM1363.53 689L1393.53 604H1554.53L1584.53 689H1363.53ZM1879.48 758C1851.48 758 1825.48 753.667 1801.48 745C1777.81 736 1757.14 723.333 1739.48 707C1722.14 690.667 1708.64 671.333 1698.98 649C1689.31 626.667 1684.48 602 1684.48 575C1684.48 548 1689.31 523.333 1698.98 501C1708.64 478.667 1722.14 459.333 1739.48 443C1757.14 426.667 1777.81 414.167 1801.48 405.5C1825.48 396.5 1851.48 392 1879.48 392C1913.81 392 1944.14 398 1970.48 410C1997.14 422 2019.14 439.333 2036.48 462L1961.98 528.5C1951.64 515.5 1940.14 505.5 1927.48 498.5C1915.14 491.167 1901.14 487.5 1885.48 487.5C1873.14 487.5 1861.98 489.5 1851.98 493.5C1841.98 497.5 1833.31 503.333 1825.98 511C1818.98 518.667 1813.48 528 1809.48 539C1805.48 549.667 1803.48 561.667 1803.48 575C1803.48 588.333 1805.48 600.5 1809.48 611.5C1813.48 622.167 1818.98 631.333 1825.98 639C1833.31 646.667 1841.98 652.5 1851.98 656.5C1861.98 660.5 1873.14 662.5 1885.48 662.5C1901.14 662.5 1915.14 659 1927.48 652C1940.14 644.667 1951.64 634.5 1961.98 621.5L2036.48 688C2019.14 710.333 1997.14 727.667 1970.48 740C1944.14 752 1913.81 758 1879.48 758ZM2276.45 750V491.5H2173.95V400H2496.95V491.5H2394.45V750H2276.45ZM3034.54 530H3190.54V615H3034.54V530ZM3042.54 661H3217.54V750H2926.54V400H3211.04V489H3042.54V661Z" fill="white"/>
<path d="M2696.21 758C2667.88 758 2641.55 753.5 2617.21 744.5C2593.21 735.5 2572.38 722.833 2554.71 706.5C2537.05 689.833 2523.21 670.333 2513.21 648C2503.55 625.667 2498.71 601.333 2498.71 575C2498.71 548.333 2503.55 524 2513.21 502C2523.21 479.667 2537.05 460.333 2554.71 444C2572.38 427.333 2593.21 414.5 2617.21 405.5C2641.55 396.5 2667.88 392 2696.21 392C2724.88 392 2751.21 396.5 2775.21 405.5C2799.21 414.5 2820.05 427.333 2837.71 444C2855.38 460.333 2869.05 479.667 2878.71 502C2888.71 524 2893.71 548.333 2893.71 575C2893.71 601.333 2888.71 625.667 2878.71 648C2869.05 670.333 2855.38 689.833 2837.71 706.5C2820.05 722.833 2799.21 735.5 2775.21 744.5C2751.21 753.5 2724.88 758 2696.21 758ZM2696.21 662.5C2707.21 662.5 2717.38 660.5 2726.71 656.5C2736.38 652.5 2744.71 646.833 2751.71 639.5C2759.05 631.833 2764.71 622.667 2768.71 612C2772.71 601 2774.71 588.667 2774.71 575C2774.71 561.333 2772.71 549.167 2768.71 538.5C2764.71 527.5 2759.05 518.333 2751.71 511C2744.71 503.333 2736.38 497.5 2726.71 493.5C2717.38 489.5 2707.21 487.5 2696.21 487.5C2685.21 487.5 2674.88 489.5 2665.21 493.5C2655.88 497.5 2647.55 503.333 2640.21 511C2633.21 518.333 2627.71 527.5 2623.71 538.5C2619.71 549.167 2617.71 561.333 2617.71 575C2617.71 588.667 2619.71 601 2623.71 612C2627.71 622.667 2633.21 631.833 2640.21 639.5C2647.55 646.833 2655.88 652.5 2665.21 656.5C2674.88 660.5 2685.21 662.5 2696.21 662.5Z" fill="#694CFF"/>
</svg>
