<svg width="42" height="42" viewBox="0 0 42 42" fill="none" xmlns="http://www.w3.org/2000/svg">
<path d="M26.6199 20.6592L39.0953 8.34463C39.0959 8.34406 39.0964 8.34349 39.097 8.34293C39.4906 7.95686 39.8013 7.49453 40.0101 6.98423C40.218 6.47618 40.3204 5.93123 40.3113 5.38245C40.3088 4.22103 39.8464 3.10771 39.0249 2.2863C38.2013 1.46269 37.0842 1 35.9194 1V0.999935L35.908 1.00007C35.3532 1.0064 34.8054 1.1247 34.2975 1.34788C33.7946 1.56883 33.3411 1.88805 32.9634 2.28673L20.6559 14.5937L8.27034 2.20865C7.50948 1.44783 6.48019 1.01352 5.40494 1.00008L5.40494 1H5.39244C4.22765 1 3.11056 1.46269 2.28692 2.2863C1.46328 3.1099 1.00055 4.22697 1.00055 5.39174V5.41027L1.00124 5.42878C1.03962 6.46435 1.47325 7.44578 2.21286 8.17142L14.692 20.65L2.21656 32.9645C2.21602 32.9651 2.21547 32.9656 2.21493 32.9661C1.82127 33.3522 1.51053 33.8146 1.30174 34.3249C1.09387 34.833 0.991421 35.378 1.00056 35.9269C1.00306 37.0882 1.4655 38.2015 2.28692 39.0229C3.11056 39.8465 4.22765 40.3092 5.39244 40.3092V40.3092L5.40436 40.3091C5.94838 40.3026 6.48572 40.1885 6.98539 39.9732C7.48237 39.7591 7.9323 39.4493 8.30949 39.0614L20.6513 26.7201L32.8673 39.0959L32.8705 39.0991C33.2736 39.5039 33.7565 39.8204 34.2886 40.0285C34.8141 40.2342 35.3762 40.3297 35.9401 40.3091C37.0974 40.3037 38.2062 39.8416 39.0249 39.0229C39.8486 38.1993 40.3113 37.0822 40.3113 35.9174V35.8989L40.3106 35.8804C40.2722 34.8448 39.8386 33.8633 39.0989 33.1377C39.0975 33.1363 39.0962 33.135 39.0948 33.1336L26.6199 20.6592Z" fill="white" stroke="white" stroke-width="2"/>
</svg>
